<?xml version="1.0" encoding="UTF-8"?>
<svg id="Layer_2" data-name="Layer 2" xmlns="http://www.w3.org/2000/svg" viewBox="0 0 628.34 619.92">
  <defs>
    <style>
      .cls-1 {
        fill: #eb5d5e;
      }

      .cls-2 {
        fill: #000020;
      }

      .cls-3, .cls-4 {
        fill: #fff;
      }

      .cls-4 {
        stroke: #4a5478;
        stroke-miterlimit: 10;
      }

      .cls-5 {
        fill: #0cb5c3;
      }

      .cls-6 {
        fill: #4a5478;
      }

      .cls-7 {
        fill: #8773ae;
      }

      .cls-8 {
        fill: #b3bac5;
      }

      .cls-9 {
        fill: #f5aa16;
      }
    </style>
  </defs>
  <g id="Layer_1-2" data-name="Layer 1">
    <g>
      <path class="cls-6" d="M87.55,170.41h440.78c10.04,0,18.19,8.15,18.19,18.19v292.92H66.84V191.12c0-11.43,9.28-20.71,20.71-20.71Z"/>
      <path class="cls-8" d="M217.96,481.03v39.5H26.91c-14.85,0-26.91-12.04-26.91-26.91v-3.35c0-5.1,4.14-9.24,9.24-9.24h208.72Z"/>
      <g>
        <path class="cls-2" d="M88.73,46.99c1.16-1.71,2.43-1.93,3.47-1.93s2.75.22,3.91,1.93c9.16,12.58,24.27,37.63,35.42,56.12,7.27,12.05,12.86,21.31,14,22.49,4.3,4.42,10.2,1.67,13.63-3.35,3.37-4.94,4.31-8.41,4.31-12.11,0-2.52-48.89-93.45-53.82-101.02-4.74-7.28-6.28-9.12-14.38-9.12h-6.06c-8.08,0-9.25,1.84-13.98,9.12-4.92,7.57-53.82,98.5-53.82,101.02,0,3.7.94,7.17,4.31,12.11,3.43,5.02,9.33,7.77,13.63,3.35,1.15-1.18,6.73-10.44,14-22.49,11.15-18.48,26.22-43.54,35.38-56.12Z"/>
        <path class="cls-2" d="M412.97,39.77c20.14,0,36.15,18.18,36.15,40.67s-16.01,40.82-36.15,40.82c-10.78,0-19.19-4.47-24.58-12.6h0v36.84h-22.36V41.37h22.36v11c5.39-8.13,13.79-12.6,24.58-12.6ZM497.89,39.77c22.83,0,40.43,17.54,40.43,40.82s-17.6,40.67-40.43,40.67-40.43-17.38-40.43-40.67,17.44-40.82,40.43-40.82ZM265.48,8.04v22.65h-44.55v20.09h39.64v22.64h-39.64v23.6h44.55v22.65h-68.02V8.04h68.02ZM301.86,41.37l12.84,18.5,13-18.5h26.64l-26.32,37.79,28.22,40.51h-26.95l-14.75-21.21-14.75,21.21h-26.64l28.06-40.35-26.32-37.95h26.95ZM407.9,61.14c-10.94,0-19.5,8.45-19.5,19.3s8.56,19.3,19.5,19.3,19.5-8.45,19.5-19.3-8.72-19.3-19.5-19.3ZM497.89,61.3c-10.63,0-18.55,8.13-18.55,19.3s7.93,19.14,18.55,19.14,18.55-8.29,18.55-19.14-8.09-19.3-18.55-19.3Z"/>
      </g>
      <rect class="cls-4" x="92.57" y="198.13" width="428.22" height="264.39" rx="7.81" ry="7.81"/>
      <circle class="cls-5" cx="167.58" cy="293.36" r="29.57"/>
      <circle class="cls-1" cx="250.29" cy="293.51" r="29.57"/>
      <circle class="cls-9" cx="338.07" cy="293.51" r="29.57"/>
      <circle class="cls-7" cx="420.63" cy="293.51" r="29.57"/>
      <rect class="cls-6" x="204.85" y="352.58" width="423.49" height="267.34" rx="19.94" ry="19.94"/>
      <path class="cls-3" d="M312.14,409.42v14.95l-54.76,20.82v-14.38l38.31-13.92-38.31-14.03v-14.26l54.76,20.82Z"/>
      <path class="cls-3" d="M319.16,440.02h57.52v10.35h-57.52v-10.35Z"/>
      <g>
        <path class="cls-3" d="M290.54,541.21v16.42h-8.31v-15.14c0-4.64-2.13-6.77-5.81-6.77-4,0-6.88,2.45-6.88,7.73v14.18h-8.31v-28.67h7.94v3.36c2.24-2.45,5.6-3.78,9.49-3.78,6.77,0,11.88,3.94,11.88,12.68Z"/>
        <path class="cls-3" d="M329.28,543.29c0,9.01-6.24,14.76-14.28,14.76-3.57,0-6.5-1.12-8.63-3.46v13.38h-8.31v-39.01h7.94v3.31c2.08-2.51,5.17-3.73,9.01-3.73,8.05,0,14.28,5.76,14.28,14.76ZM320.86,543.29c0-4.96-3.14-7.94-7.3-7.94s-7.3,2.98-7.3,7.94,3.14,7.94,7.3,7.94,7.3-2.99,7.3-7.94Z"/>
        <path class="cls-3" d="M383.27,541.21v16.42h-8.31v-15.14c0-4.64-2.08-6.77-5.44-6.77-3.73,0-6.34,2.4-6.34,7.51v14.39h-8.31v-15.14c0-4.64-1.97-6.77-5.44-6.77-3.68,0-6.29,2.4-6.29,7.51v14.39h-8.31v-28.67h7.94v3.31c2.13-2.45,5.33-3.73,9.01-3.73,4,0,7.41,1.54,9.43,4.69,2.29-2.93,6.02-4.69,10.34-4.69,6.82,0,11.73,3.94,11.73,12.68Z"/>
        <path class="cls-3" d="M404.8,520.31c0-2.61,2.08-4.64,5.17-4.64s5.17,1.92,5.17,4.48c0,2.77-2.08,4.8-5.17,4.8s-5.17-2.02-5.17-4.64ZM405.81,528.95h8.31v28.67h-8.31v-28.67Z"/>
        <path class="cls-3" d="M451.17,541.21v16.42h-8.31v-15.14c0-4.64-2.13-6.77-5.81-6.77-4,0-6.88,2.45-6.88,7.73v14.18h-8.31v-28.67h7.94v3.36c2.24-2.45,5.6-3.78,9.49-3.78,6.77,0,11.88,3.94,11.88,12.68Z"/>
        <path class="cls-3" d="M455.91,554.96l2.77-5.97c2.56,1.65,6.45,2.77,9.97,2.77,3.84,0,5.28-1.01,5.28-2.61,0-4.69-17.32.11-17.32-11.35,0-5.44,4.9-9.27,13.27-9.27,3.94,0,8.31.91,11.03,2.5l-2.77,5.92c-2.82-1.6-5.65-2.13-8.26-2.13-3.73,0-5.33,1.17-5.33,2.66,0,4.9,17.32.16,17.32,11.46,0,5.33-4.96,9.11-13.54,9.11-4.85,0-9.75-1.33-12.42-3.09Z"/>
        <path class="cls-3" d="M505.48,556.24c-1.71,1.23-4.21,1.81-6.77,1.81-6.77,0-10.71-3.46-10.71-10.29v-11.78h-4.42v-6.4h4.42v-6.98h8.31v6.98h7.14v6.4h-7.14v11.67c0,2.45,1.33,3.78,3.57,3.78,1.23,0,2.45-.37,3.36-1.07l2.24,5.86Z"/>
        <path class="cls-3" d="M535.54,541.26v16.36h-7.78v-3.57c-1.55,2.61-4.53,4-8.74,4-6.72,0-10.71-3.73-10.71-8.69s3.57-8.58,12.31-8.58h6.61c0-3.57-2.13-5.65-6.61-5.65-3.04,0-6.18,1.01-8.26,2.66l-2.98-5.81c3.14-2.24,7.78-3.46,12.36-3.46,8.74,0,13.8,4.05,13.8,12.74ZM527.22,548.56v-2.93h-5.7c-3.89,0-5.12,1.44-5.12,3.36,0,2.08,1.76,3.46,4.69,3.46,2.77,0,5.17-1.28,6.13-3.89Z"/>
        <path class="cls-3" d="M543.05,518.07h8.31v39.55h-8.31v-39.55Z"/>
        <path class="cls-3" d="M559.09,518.07h8.31v39.55h-8.31v-39.55Z"/>
      </g>
    </g>
  </g>
</svg>