<?xml version="1.0" encoding="UTF-8"?>
<svg id="Layer_2" data-name="Layer 2" xmlns="http://www.w3.org/2000/svg" xmlns:xlink="http://www.w3.org/1999/xlink" viewBox="0 0 643.1 702.66">
  <defs>
    <style>
      .cls-1 {
        fill: #55637e;
      }

      .cls-2 {
        fill: #fff;
      }

      .cls-3 {
        fill: none;
      }

      .cls-4 {
        fill: #e1e4e9;
      }

      .cls-5 {
        fill: #98a2b7;
      }

      .cls-6 {
        stroke: #e1e4e9;
        stroke-width: 2px;
      }

      .cls-6, .cls-7 {
        fill: #0cb5c3;
      }

      .cls-8 {
        clip-path: url(#clippath);
      }
    </style>
    <clipPath id="clippath">
      <rect class="cls-3" x="346.18" y="405.75" width="296.92" height="296.92"/>
    </clipPath>
  </defs>
  <g id="Layer_1-2" data-name="Layer 1">
    <g>
      <g>
        <rect class="cls-1" x="71.74" width="504.23" height="504.23" rx="19.74" ry="19.74"/>
        <rect class="cls-2" x="107.38" y="39.63" width="432.95" height="167.98" rx="10.84" ry="10.84"/>
        <rect class="cls-2" x="107.38" y="235.99" width="432.95" height="106.46" rx="10.84" ry="10.84"/>
        <rect class="cls-7" x="107.38" y="379.5" width="193.51" height="59.59" rx="8" ry="8"/>
        <rect class="cls-1" x="134.47" y="274.44" width="273.59" height="29.57" rx="9.68" ry="9.68"/>
      </g>
      <path class="cls-6" d="M64.77,504.23h136.05c35.22,0,63.77,28.55,63.77,63.77h0c0,35.22-28.55,63.77-63.77,63.77H64.77c-35.22,0-63.77-28.55-63.77-63.77h0c0-35.22,28.55-63.77,63.77-63.77Z"/>
      <circle class="cls-4" cx="200.82" cy="568" r="42.52"/>
      <g class="cls-8">
        <g>
          <path class="cls-5" d="M617,405.75h-113.66v59.38c0,7.49-8.86,11.47-14.48,6.51-3.2-2.85-7.33-4.42-11.62-4.42-9.59,0-17.4,7.81-17.4,17.4s7.81,17.4,17.4,17.4c4.29,0,8.42-1.57,11.62-4.42,5.67-4.99,14.48-.92,14.48,6.51v41.4h27.19c-.72-2.82-1.1-5.74-1.1-8.7,0-19.19,15.6-34.79,34.79-34.79s34.79,15.6,34.79,34.79c0,2.96-.37,5.88-1.1,8.7h45.17v-113.66c0-14.41-11.68-26.1-26.1-26.1Z"/>
          <path class="cls-5" d="M477.24,449.82c2.96,0,5.88.37,8.7,1.1v-45.17h-113.66c-14.41,0-26.1,11.68-26.1,26.1v113.66h59.38c7.48,0,11.48,8.85,6.51,14.48-2.85,3.2-4.42,7.33-4.42,11.62,0,9.59,7.81,17.4,17.4,17.4s17.4-7.81,17.4-17.4c0-4.29-1.57-8.42-4.42-11.62-4.97-5.62-.97-14.48,6.51-14.48h41.4v-27.19c-2.82.72-5.74,1.1-8.7,1.1-19.19,0-34.79-15.6-34.79-34.79s15.6-34.79,34.79-34.79Z"/>
          <path class="cls-5" d="M583.72,562.9c-7.48,0-11.48-8.85-6.51-14.48,2.85-3.2,4.42-7.33,4.42-11.62,0-9.59-7.81-17.4-17.4-17.4s-17.4,7.81-17.4,17.4c0,4.29,1.57,8.42,4.42,11.62,4.97,5.62.97,14.48-6.51,14.48h-41.4v27.19c2.82-.72,5.74-1.1,8.7-1.1,19.19,0,34.79,15.6,34.79,34.79s-15.6,34.79-34.79,34.79c-2.96,0-5.88-.37-8.7-1.1v45.17h113.66c14.41,0,26.1-11.68,26.1-26.1v-113.66h-59.38Z"/>
          <path class="cls-5" d="M512.04,606.4c-4.29,0-8.42,1.57-11.62,4.42-5.63,4.99-14.48.95-14.48-6.51v-41.4h-27.19c.72,2.82,1.1,5.74,1.1,8.7,0,19.19-15.6,34.79-34.79,34.79s-34.79-15.6-34.79-34.79c0-2.96.37-5.88,1.1-8.7h-45.17v113.66c0,14.41,11.68,26.1,26.1,26.1h113.66v-59.38c0-7.49,8.87-11.48,14.48-6.51,3.2,2.85,7.33,4.42,11.62,4.42,9.59,0,17.4-7.81,17.4-17.4s-7.81-17.4-17.4-17.4Z"/>
        </g>
      </g>
    </g>
  </g>
</svg>